<svg id="Layer_1" enable-background="new 0 0 512.154 512.154" height="512" viewBox="0 0 512.154 512.154" width="512" xmlns="http://www.w3.org/2000/svg"><path d="m442.577 84.32 11.894 11.893h-38.787v-38.787l11.893 11.894 21.213-21.213-48.106-48.107-48.107 48.107 21.213 21.213 11.894-11.894v38.787h-38.787l11.893-11.893-21.213-21.213-48.106 48.106 48.106 48.107 21.213-21.213-11.893-11.894h38.787v38.787l-11.894-11.893-21.213 21.213 48.107 48.106 48.106-48.106-21.213-21.213-11.893 11.893v-38.787h38.787l-11.894 11.894 21.213 21.213 48.107-48.107-48.107-48.106z"/><path d="m164.863 512.154 54.868-182.894 182.894-54.868-402.368-164.606zm30.774-206.987-35.131 117.106-105.395-257.633 257.633 105.395z"/></svg>